<?xml version="1.0" encoding="iso-8859-1"?>
<!-- Generator: Adobe Illustrator 16.0.0, SVG Export Plug-In . SVG Version: 6.00 Build 0)  -->
<!DOCTYPE svg PUBLIC "-//W3C//DTD SVG 1.1//EN" "http://www.w3.org/Graphics/SVG/1.1/DTD/svg11.dtd">
<svg version="1.1" id="Capa_1" xmlns="http://www.w3.org/2000/svg" xmlns:xlink="http://www.w3.org/1999/xlink" x="0px" y="0px"
	 width="49.994px" height="49.994px" viewBox="0 0 49.994 49.994" style="enable-background:new 0 0 49.994 49.994;"
	 xml:space="preserve">
<g>
	<g>
		<path d="M3.317,42.624c0.172,0.063,0.367,0.03,0.506-0.091c1.609-1.402,7.748-2.297,10.421-2.297
			c3.235,0,8.871,0.638,10.275,4.904c0.068,0.207,0.262,0.346,0.475,0.346c0.025,0,0.053-0.004,0.08-0.008
			c0.242-0.039,0.421-0.248,0.421-0.492v-0.01c1.438-4.213,7.03-4.847,10.25-4.847c2.673,0,8.813,0.896,10.421,2.296
			c0.141,0.121,0.334,0.155,0.506,0.092c0.174-0.062,0.297-0.221,0.318-0.4l3.004-22.984c0-2.503-1.529-4.836-4.41-6.76
			c-1.293-4.639-5.513-7.865-10.34-7.865c-4.818,0-8.908,3.188-10.268,7.567c-1.393-4.324-5.45-7.463-10.232-7.463
			c-4.826,0-9.047,3.226-10.338,7.865C1.524,14.401-0.006,16.735,0,19.302l3,22.918C3.022,42.404,3.144,42.559,3.317,42.624z
			 M48.998,19.068l-2.896,22.122c-2.588-1.418-8.332-2.057-10.358-2.057c-4.899,0-8.448,1.305-10.25,3.717v-0.692v-0.013
			c0.043-0.125,0.097-0.246,0.146-0.369c0.047-0.11,0.086-0.225,0.139-0.334c0.062-0.133,0.137-0.258,0.207-0.385
			c0.059-0.104,0.109-0.213,0.175-0.313c0.075-0.125,0.165-0.244,0.249-0.362c0.068-0.103,0.135-0.203,0.211-0.304
			c0.09-0.114,0.188-0.228,0.283-0.34c0.082-0.097,0.158-0.193,0.244-0.287c0.104-0.109,0.213-0.213,0.318-0.318
			c0.092-0.092,0.18-0.184,0.272-0.271c0.11-0.104,0.229-0.197,0.347-0.295c0.102-0.086,0.197-0.172,0.303-0.254
			c0.119-0.094,0.244-0.181,0.367-0.27c0.108-0.079,0.215-0.161,0.328-0.236c0.125-0.086,0.256-0.162,0.385-0.244
			c0.117-0.07,0.229-0.146,0.35-0.217c0.132-0.076,0.268-0.145,0.398-0.216c0.123-0.065,0.244-0.136,0.369-0.198
			c0.135-0.066,0.271-0.127,0.408-0.188c0.128-0.061,0.256-0.121,0.385-0.178c0.141-0.06,0.281-0.109,0.424-0.166
			c0.129-0.049,0.256-0.104,0.387-0.146c0.146-0.053,0.297-0.096,0.443-0.143c0.125-0.041,0.25-0.086,0.377-0.121
			c0.156-0.045,0.313-0.08,0.471-0.119c0.117-0.025,0.234-0.062,0.354-0.088c0.166-0.037,0.33-0.062,0.494-0.094
			c0.105-0.019,0.217-0.043,0.322-0.059c0.176-0.025,0.348-0.041,0.52-0.059c0.098-0.012,0.191-0.025,0.289-0.033
			c0.268-0.021,0.527-0.031,0.786-0.031c2.354,0,4.629,0.854,6.401,2.396c0.143,0.123,0.338,0.156,0.512,0.09
			c0.173-0.066,0.295-0.227,0.314-0.41l2.521-22.326c0-0.457-0.034-0.922-0.1-1.389c-0.002-0.016,0-0.032-0.004-0.048
			C47.477,15.06,48.995,16.837,48.998,19.068z M25.494,15.258c0-5.376,4.374-9.75,9.75-9.75c4.438,0,8.312,3.001,9.428,7.299
			c0.215,0.827,0.322,1.651,0.325,2.395L42.58,36.575c-1.833-1.338-4.05-2.063-6.336-2.063c-0.262,0-0.523,0.012-0.793,0.028
			c-0.087,0.007-0.176,0.019-0.264,0.024c-0.184,0.019-0.366,0.035-0.555,0.063c-0.103,0.015-0.203,0.031-0.308,0.047
			c-0.177,0.027-0.351,0.062-0.526,0.097c-0.104,0.021-0.211,0.043-0.314,0.065c-0.182,0.041-0.359,0.086-0.543,0.136
			c-0.1,0.024-0.195,0.051-0.295,0.08c-0.215,0.062-0.426,0.131-0.637,0.2c-0.062,0.021-0.129,0.04-0.193,0.063
			c-0.273,0.099-0.549,0.203-0.82,0.316c-0.062,0.026-0.124,0.057-0.188,0.083c-0.207,0.093-0.414,0.185-0.619,0.285
			c-0.092,0.045-0.182,0.095-0.271,0.142c-0.174,0.09-0.346,0.183-0.516,0.276c-0.097,0.056-0.189,0.109-0.283,0.167
			c-0.164,0.1-0.324,0.2-0.483,0.307c-0.089,0.06-0.179,0.115-0.267,0.179c-0.168,0.114-0.33,0.237-0.492,0.36
			c-0.069,0.056-0.146,0.106-0.215,0.164c-0.453,0.363-0.878,0.758-1.265,1.18c-0.062,0.063-0.113,0.134-0.172,0.199
			c-0.129,0.147-0.256,0.299-0.373,0.453c-0.063,0.084-0.123,0.168-0.187,0.252c-0.06,0.082-0.121,0.157-0.177,0.24V15.362
			L25.494,15.258L25.494,15.258z M14.744,5.612c5.376,0,9.75,4.374,9.75,9.75V40.02c-0.055-0.082-0.117-0.157-0.176-0.239
			c-0.061-0.084-0.12-0.168-0.184-0.252c-0.119-0.153-0.246-0.306-0.375-0.453c-0.059-0.063-0.111-0.136-0.171-0.198
			c-0.387-0.423-0.811-0.814-1.265-1.181c-0.069-0.058-0.142-0.106-0.214-0.162c-0.161-0.125-0.325-0.246-0.493-0.361
			c-0.088-0.063-0.177-0.118-0.266-0.18c-0.159-0.104-0.32-0.207-0.484-0.306c-0.094-0.058-0.188-0.11-0.282-0.168
			c-0.169-0.097-0.342-0.188-0.516-0.276c-0.091-0.047-0.18-0.095-0.271-0.142c-0.204-0.1-0.411-0.192-0.619-0.282
			c-0.063-0.026-0.124-0.06-0.187-0.085c-0.271-0.112-0.546-0.221-0.821-0.314c-0.064-0.021-0.129-0.041-0.193-0.062
			c-0.212-0.069-0.424-0.139-0.636-0.198c-0.1-0.029-0.197-0.056-0.296-0.08c-0.182-0.049-0.362-0.097-0.543-0.138
			c-0.105-0.022-0.21-0.045-0.315-0.065c-0.177-0.035-0.353-0.065-0.528-0.096c-0.103-0.019-0.205-0.033-0.307-0.048
			c-0.186-0.024-0.37-0.045-0.554-0.063c-0.087-0.01-0.175-0.021-0.263-0.024c-0.268-0.021-0.532-0.028-0.793-0.028
			c-2.286,0-4.504,0.728-6.336,2.063L4.992,15.364c0-0.8,0.109-1.625,0.324-2.45l0,0l0,0C6.433,8.613,10.309,5.612,14.744,5.612z
			 M4.098,13.924c-0.002,0.016-0.001,0.032-0.003,0.048c-0.064,0.476-0.1,0.956-0.098,1.446l2.52,22.271
			c0.021,0.187,0.143,0.344,0.316,0.41s0.369,0.031,0.51-0.09c1.772-1.547,4.047-2.396,6.402-2.396c0.259,0,0.521,0.01,0.786,0.031
			c0.096,0.008,0.193,0.021,0.289,0.033c0.172,0.018,0.345,0.031,0.519,0.059c0.106,0.018,0.216,0.041,0.323,0.061
			c0.165,0.027,0.329,0.055,0.494,0.092c0.117,0.023,0.235,0.062,0.354,0.088c0.157,0.039,0.313,0.074,0.47,0.119
			c0.126,0.036,0.251,0.08,0.376,0.12c0.148,0.048,0.297,0.091,0.444,0.142c0.13,0.049,0.258,0.104,0.387,0.15
			c0.141,0.055,0.283,0.105,0.423,0.165c0.13,0.056,0.256,0.116,0.384,0.177c0.137,0.063,0.274,0.121,0.409,0.188
			c0.125,0.063,0.247,0.134,0.37,0.199c0.133,0.069,0.269,0.141,0.398,0.215c0.119,0.067,0.232,0.146,0.349,0.219
			c0.129,0.081,0.26,0.156,0.386,0.242c0.112,0.076,0.219,0.158,0.327,0.235c0.123,0.091,0.249,0.177,0.368,0.271
			c0.104,0.082,0.201,0.169,0.302,0.254c0.116,0.1,0.235,0.192,0.347,0.295c0.095,0.088,0.182,0.18,0.272,0.271
			c0.107,0.104,0.218,0.209,0.319,0.315c0.086,0.094,0.163,0.19,0.245,0.289c0.096,0.11,0.194,0.223,0.283,0.34
			c0.075,0.101,0.141,0.201,0.211,0.304c0.085,0.118,0.172,0.237,0.249,0.36c0.064,0.104,0.116,0.211,0.175,0.315
			c0.069,0.127,0.146,0.252,0.207,0.384c0.051,0.108,0.092,0.223,0.137,0.335c0.052,0.123,0.105,0.245,0.147,0.37v0.7
			c-1.802-2.412-5.348-3.715-10.25-3.715c-2.027,0-7.771,0.639-10.358,2.057L0.995,19.237C0.994,16.951,2.514,15.164,4.098,13.924z"
			/>
		<path d="M10.534,15.768c0.203-0.144,5.033-3.49,9.919,0c0.089,0.063,0.189,0.093,0.29,0.093c0.156,0,0.311-0.073,0.407-0.209
			c0.161-0.225,0.108-0.537-0.116-0.697c-5.477-3.913-11.025-0.04-11.081,0c-0.225,0.16-0.275,0.472-0.116,0.697
			C9.997,15.876,10.31,15.928,10.534,15.768z"/>
		<path d="M10.534,21.768c0.203-0.144,5.033-3.49,9.919,0c0.089,0.063,0.189,0.093,0.29,0.093c0.156,0,0.311-0.072,0.407-0.209
			c0.161-0.225,0.108-0.537-0.116-0.697c-5.477-3.913-11.025-0.04-11.081,0c-0.225,0.16-0.275,0.472-0.116,0.697
			C9.997,21.876,10.31,21.928,10.534,21.768z"/>
		<path d="M10.534,27.768c0.203-0.145,5.033-3.488,9.919,0c0.089,0.063,0.189,0.094,0.29,0.094c0.156,0,0.311-0.072,0.407-0.209
			c0.161-0.227,0.108-0.537-0.116-0.697c-5.477-3.91-11.025-0.038-11.081,0c-0.225,0.16-0.275,0.475-0.116,0.697
			C9.997,27.876,10.31,27.93,10.534,27.768z"/>
		<path d="M29.244,15.758c0.104,0,0.202-0.03,0.29-0.093c4.888-3.491,9.718-0.144,9.919,0c0.227,0.16,0.537,0.107,0.695-0.117
			c0.16-0.225,0.107-0.537-0.115-0.697c-0.057-0.039-5.604-3.912-11.081,0c-0.226,0.16-0.274,0.473-0.116,0.697
			C28.936,15.685,29.088,15.758,29.244,15.758z"/>
		<path d="M29.244,21.758c0.104,0,0.202-0.03,0.29-0.094c4.888-3.49,9.718-0.145,9.919,0c0.227,0.16,0.537,0.109,0.695-0.116
			c0.16-0.225,0.107-0.537-0.115-0.697c-0.057-0.04-5.604-3.912-11.081,0c-0.226,0.16-0.274,0.473-0.116,0.697
			C28.936,21.685,29.088,21.758,29.244,21.758z"/>
		<path d="M29.244,27.758c0.104,0,0.202-0.029,0.29-0.094c4.888-3.489,9.718-0.146,9.919,0c0.227,0.162,0.537,0.107,0.695-0.116
			c0.16-0.225,0.107-0.536-0.115-0.696c-0.057-0.039-5.604-3.912-11.081,0c-0.226,0.16-0.274,0.475-0.116,0.696
			C28.936,27.686,29.088,27.758,29.244,27.758z"/>
	</g>
</g>
<g>
</g>
<g>
</g>
<g>
</g>
<g>
</g>
<g>
</g>
<g>
</g>
<g>
</g>
<g>
</g>
<g>
</g>
<g>
</g>
<g>
</g>
<g>
</g>
<g>
</g>
<g>
</g>
<g>
</g>
</svg>
