<?xml version="1.0" encoding="utf-8"?>
<!-- Generator: Adobe Illustrator 21.1.0, SVG Export Plug-In . SVG Version: 6.00 Build 0)  -->
<svg version="1.1" id="レイヤー_1" xmlns="http://www.w3.org/2000/svg" xmlns:xlink="http://www.w3.org/1999/xlink" x="0px"
	 y="0px" viewBox="0 0 256 250" style="enable-background:new 0 0 256 250;" xml:space="preserve">
<style type="text/css">
	.st0{fill:#4391F4;}
	.st1{fill:#FFFFFF;}
	.st2{fill:#080F38;}
	.st3{fill:#E93F37;}
</style>
<path class="st0" d="M163.5,86.9c-13-13.4-20.7-27.9-21.3-47.1S127,22.9,127,22.9s-10.6-2.3-11.2,16.9s-8.3,33.7-21.3,47.1
	c-11.4,11.7-57.9,18.5-69.3,63.3c-1.6,6.4-5.2,26.7,5.3,42.8c15.2,23.3,58.3,38.2,99.6,38.2c40.2,0,73.9-14.8,93.4-33.7
	c14.5-14,11.2-38.2,10.1-43.6C223.9,105.7,175.2,98.8,163.5,86.9z"/>
<circle class="st1" cx="104.6" cy="146.8" r="18"/>
<circle class="st2" cx="104.6" cy="146.8" r="8.1"/>
<circle class="st1" cx="152.2" cy="146.8" r="18"/>
<circle class="st2" cx="152.2" cy="146.8" r="8.1"/>
<path class="st3" d="M126.7,195.9c-35.2,0-47.8-19.8-48.3-20.7c-1.6-2.6-0.8-6,1.8-7.6c2.6-1.6,6-0.8,7.6,1.8
	c0.5,0.7,10.3,15.4,38.9,15.4c29.7,0,43.4-14.9,43.5-15c2-2.3,5.5-2.5,7.8-0.4c2.3,2,2.5,5.5,0.4,7.8
	C177.8,178,161.3,195.9,126.7,195.9z"/>
<g id="レイヤー_1_1_">
</g>
</svg>
